# xmcd
#
# Track frame offsets: 
#        150
#        26073
#        39297
#        58877
#        76255
#        111555
#        126890
#        143288
#        162145
#        179797
#        191770
#        206333
#        222932
#        241768
#
# Disc length: 3412 seconds
#
# Revision: 0
# Processed by: cddbd v1.5.1PL0 Copyright (c) Steve Scherf et al.
# Submitted via: ExactAudioCopy v0.95a5
#
DISCID=c40d520e
DTITLE=Various Artist - Super Best 2004 [CD TWO)
DYEAR=2004
DGENRE=Country
TTITLE0=Montreal
TTITLE1=Cowboi
TTITLE2=Alfonsina of Havet
TTITLE3=Love
TTITLE4=Bird of Paradise
TTITLE5=A Kunne a Skrive
TTITLE6=Staffansvisa
TTITLE7=Auld Lang' Syne
TTITLE8=El Senor Es Mi Pastor
TTITLE9=Cual Inceritos
TTITLE10=It Had To Be You
TTITLE11=Pia Yesu
TTITLE12=Alternative Energi
TTITLE13=II Prigioniero
EXTD=
EXTT0=
EXTT1=
EXTT2=
EXTT3=
EXTT4=
EXTT5=
EXTT6=
EXTT7=
EXTT8=
EXTT9=
EXTT10=
EXTT11=
EXTT12=
EXTT13=
PLAYORDER=
